<svg width="80" height="50" viewBox="0 0 80 50" fill="none" xmlns="http://www.w3.org/2000/svg">
<rect x="0.5" y="0.5" width="79" height="49" rx="24.5" stroke="#EB3D47"/>
<g clip-path="url(#clip0_311_452)">
<g clip-path="url(#clip1_311_452)">
<g clip-path="url(#clip2_311_452)">
<path fill-rule="evenodd" clip-rule="evenodd" d="M53 25.5C53 25.7505 52.9022 25.9906 52.728 26.1677C52.5539 26.3448 52.3177 26.4443 52.0715 26.4443H30.1716L36.0157 32.3859C36.19 32.5632 36.2879 32.8037 36.2879 33.0545C36.2879 33.3053 36.19 33.5457 36.0157 33.7231C35.8413 33.9004 35.6048 34 35.3583 34C35.1117 34 34.8752 33.9004 34.7009 33.7231L27.2728 26.1686C27.1863 26.0809 27.1177 25.9767 27.0709 25.8619C27.0241 25.7472 27 25.6242 27 25.5C27 25.3758 27.0241 25.2528 27.0709 25.1381C27.1177 25.0234 27.1863 24.9191 27.2728 24.8314L34.7009 17.2769C34.8752 17.0996 35.1117 17 35.3583 17C35.6048 17 35.8413 17.0996 36.0157 17.2769C36.19 17.4542 36.2879 17.6947 36.2879 17.9455C36.2879 18.1963 36.19 18.4368 36.0157 18.6141L30.1716 24.5557H52.0715C52.3177 24.5557 52.5539 24.6552 52.728 24.8323C52.9022 25.0094 53 25.2496 53 25.5Z" fill="white"/>
</g>
</g>
</g>
<defs>
<clipPath id="clip0_311_452">
<rect width="26" height="17" fill="white" transform="translate(27 17)"/>
</clipPath>
<clipPath id="clip1_311_452">
<rect width="26" height="17" fill="white" transform="translate(27 17)"/>
</clipPath>
<clipPath id="clip2_311_452">
<rect width="26" height="17" fill="white" transform="translate(27 17)"/>
</clipPath>
</defs>
</svg>
