<svg width="80" height="50" viewBox="0 0 80 50" fill="none" xmlns="http://www.w3.org/2000/svg">
<rect x="0.5" y="0.5" width="79" height="49" rx="24.5" stroke="#EB3D47"/>
<g clip-path="url(#clip0_2232_7)">
<g clip-path="url(#clip1_2232_7)">
<g clip-path="url(#clip2_2232_7)">
<path fill-rule="evenodd" clip-rule="evenodd" d="M27 25.5C27 25.2495 27.0978 25.0094 27.272 24.8323C27.4461 24.6552 27.6823 24.5557 27.9285 24.5557H49.8284L43.9843 18.6141C43.81 18.4368 43.712 18.1963 43.712 17.9455C43.712 17.6947 43.81 17.4542 43.9843 17.2769C44.1587 17.0996 44.3952 17 44.6417 17C44.8883 17 45.1248 17.0996 45.2991 17.2769L52.7272 24.8314C52.8137 24.9191 52.8823 25.0233 52.9291 25.1381C52.9759 25.2528 53 25.3758 53 25.5C53 25.6242 52.9759 25.7472 52.9291 25.8619C52.8823 25.9766 52.8137 26.0808 52.7272 26.1686L45.2991 33.7231C45.1248 33.9004 44.8883 34 44.6417 34C44.3952 34 44.1587 33.9004 43.9843 33.7231C43.81 33.5458 43.712 33.3053 43.712 33.0545C43.712 32.8037 43.81 32.5632 43.9843 32.3859L49.8284 26.4443H27.9285C27.6823 26.4443 27.4461 26.3448 27.272 26.1677C27.0978 25.9906 27 25.7504 27 25.5Z" fill="white"/>
</g>
</g>
</g>
<defs>
<clipPath id="clip0_2232_7">
<rect width="26" height="17" fill="white" transform="translate(27 17)"/>
</clipPath>
<clipPath id="clip1_2232_7">
<rect width="26" height="17" fill="white" transform="translate(27 17)"/>
</clipPath>
<clipPath id="clip2_2232_7">
<rect width="26" height="17" fill="white" transform="translate(27 17)"/>
</clipPath>
</defs>
</svg>
