<svg width="15" height="15" viewBox="0 0 15 15" fill="none" xmlns="http://www.w3.org/2000/svg">
<path d="M13.8805 13.8591H11.2133V9.68227C11.2133 8.68617 11.1956 7.40407 9.82617 7.40407C8.43707 7.40407 8.22447 8.48917 8.22447 9.60967V13.8587H5.55747V5.26954H8.11777V6.44327H8.15367C8.67507 5.55197 9.64797 5.01762 10.68 5.05594C13.3831 5.05594 13.8816 6.83397 13.8816 9.14717L13.8805 13.8591ZM2.54808 4.09543C1.69901 4.09543 1 3.39683 1 2.54776C1 1.69868 1.69868 1 2.54776 1C3.39675 1 4.09535 1.69852 4.09552 2.54743C4.09552 3.39635 3.397 4.09535 2.54808 4.09543ZM3.8816 13.8591H1.21175V5.26954H3.8816V13.8591Z" stroke="black" stroke-width="0.8" stroke-linecap="round"/>
</svg>
