<svg width="125" height="123" viewBox="0 0 125 123" fill="none" xmlns="http://www.w3.org/2000/svg">
<path d="M0.675781 61.5C0.727318 27.5571 28.3869 0.05125 62.5194 0C96.6519 0.05125 124.311 27.5571 124.363 61.5C124.311 95.4429 96.6519 122.949 62.5194 123C28.3869 122.949 0.727318 95.4429 0.675781 61.5ZM62.5194 117.896C75.2598 117.908 87.6296 113.633 97.6156 105.765L96.054 102.403C95.1555 102.702 94.1774 102.662 93.3073 102.288C92.4373 101.914 91.7366 101.234 91.3398 100.379C90.9431 99.5227 90.8781 98.5513 91.1575 97.6508C91.4369 96.7502 92.0409 95.984 92.8536 95.4993L89.1327 87.4889C87.5749 87.9903 85.8831 87.8799 84.4045 87.1805C82.9258 86.481 81.7724 85.2454 81.1807 83.7271L68.4306 86.9712V87.0328C68.4227 87.5694 68.3014 88.0985 68.0745 88.5855C67.8477 89.0725 67.5205 89.5067 67.114 89.8598C66.7075 90.213 66.2309 90.4771 65.7151 90.6352C65.1993 90.7933 64.6558 90.8418 64.12 90.7775C63.5841 90.7132 63.0679 90.5375 62.6047 90.262C62.1415 89.9864 61.7418 89.617 61.4315 89.1779C61.1211 88.7388 60.9071 88.2396 60.8033 87.7129C60.6995 87.1862 60.7083 86.6436 60.829 86.1205L42.9356 78.4638C42.2855 79.5863 41.307 80.4852 40.1304 81.041C38.9538 81.5967 37.6349 81.7829 36.3492 81.5746L32.4943 94.8484C33.1883 95.2091 33.7551 95.7716 34.1193 96.461C34.4834 97.1504 34.6275 97.9338 34.5323 98.7067C34.4371 99.4796 34.1072 100.205 33.5865 100.787C33.0658 101.369 32.3792 101.778 31.6182 101.962L31.8862 108.932C41.0152 114.792 51.6533 117.909 62.5194 117.896ZM30.3092 107.881L30.0824 102.029C29.0997 101.871 28.2163 101.342 27.6177 100.551C27.0191 99.7603 26.7518 98.7697 26.8718 97.7871C26.9918 96.8045 27.4898 95.9063 28.2614 95.281C29.033 94.6557 30.0181 94.3518 31.0101 94.4333L34.8701 81.1595C33.7095 80.6701 32.7196 79.8517 32.024 78.8062C31.3283 77.7608 30.9577 76.5347 30.9585 75.2811L6.87045 72.3804C9.74905 86.7926 18.1553 99.5249 30.3092 107.881ZM98.8525 104.765C104.686 99.9141 109.487 93.9534 112.973 87.2326L93.2556 83.3838C92.7856 84.8151 91.8218 86.035 90.5345 86.8277L94.3069 94.9663C95.1268 94.8517 95.9619 95.003 96.6883 95.3978C97.4148 95.7925 97.994 96.4096 98.34 97.1575C98.686 97.9054 98.7803 98.7443 98.6089 99.5498C98.4376 100.355 98.0097 101.084 97.3888 101.629L98.8576 104.765H98.8525ZM113.685 85.813C117.345 78.2256 119.241 69.9156 119.23 61.5C119.242 48.4802 114.702 35.8611 106.387 25.8044L98.5948 28.4489C98.7291 29.0115 98.7338 29.5971 98.6087 30.1619C98.4835 30.7266 98.2316 31.2559 97.8718 31.7103C97.512 32.1646 97.0537 32.5323 96.531 32.7858C96.0083 33.0392 95.4348 33.172 94.8532 33.1741C94.11 33.1742 93.3827 32.9604 92.759 32.5584C92.1353 32.1565 91.6419 31.5836 91.3385 30.9089L75.1406 36.3875C75.8626 38.9756 75.7458 41.7242 74.8067 44.2425C73.8676 46.7607 72.154 48.9205 69.9097 50.4146L84.6336 75.5322C85.6463 75.1007 86.7537 74.9357 87.8491 75.0533C88.9445 75.1708 89.9911 75.5669 90.8879 76.2033C91.7847 76.8398 92.5017 77.6952 92.9696 78.6871C93.4376 79.679 93.6408 80.7741 93.5597 81.8668L113.685 85.813ZM68.0956 85.4645L80.7993 82.2357C80.6497 81.1152 80.8029 79.9753 81.2431 78.9332C81.6833 77.8911 82.3946 76.9843 83.304 76.3061L68.5852 51.1936C66.6161 52.1915 64.4204 52.6641 62.2126 52.5653C60.0048 52.4665 57.8607 51.7996 55.9897 50.6299L41.7141 70.5764C42.5954 71.3785 43.2333 72.4099 43.5557 73.5538C43.8781 74.6977 43.8722 75.9085 43.5385 77.0493L61.4886 84.7214C61.8892 84.1836 62.4247 83.7598 63.0417 83.4924C63.6586 83.225 64.3353 83.1233 65.0041 83.1975C65.673 83.2717 66.3105 83.5191 66.853 83.9152C67.3955 84.3112 67.824 84.8419 68.0956 85.4542V85.4645ZM31.1441 73.759C31.3795 72.8083 31.8316 71.9242 32.4655 71.1749C33.0993 70.4257 33.8979 69.8315 34.7996 69.4381C35.7012 69.0448 36.6817 68.8629 37.6653 68.9066C38.6489 68.9502 39.6093 69.2181 40.4721 69.6898L54.7477 49.7535C53.2504 48.5595 52.0423 47.046 51.2127 45.325C50.3831 43.604 49.9532 41.7195 49.9548 39.811C49.9548 36.7206 51.0834 33.7327 53.1346 31.406L34.0507 12.7459C24.0861 18.5049 16.1208 27.1443 11.214 37.5149C6.30719 47.8855 4.69152 59.4959 6.58184 70.8019L31.1389 73.7641L31.1441 73.759ZM74.6407 34.9525L90.9983 29.4021V29.3509C90.998 28.5469 91.2521 27.7633 91.7247 27.111C92.1974 26.4588 92.8645 25.971 93.6315 25.717C94.3985 25.4629 95.2265 25.4554 95.998 25.6956C96.7695 25.9357 97.4455 26.4113 97.93 27.0549L105.315 24.5487C96.8617 14.8344 85.3207 8.28818 72.6092 5.99756C59.8977 3.70693 46.7807 5.80971 35.437 11.9566L54.1962 30.3092C55.7245 28.9433 57.5604 27.9622 59.5493 27.4486C61.5382 26.9351 63.6221 26.904 65.6256 27.358C67.6291 27.812 69.4937 28.7379 71.0625 30.0577C72.6313 31.3775 73.8584 33.0527 74.6407 34.9422L74.6304 34.9576L74.6407 34.9525Z" fill="white"/>
</svg>
