<svg width="117" height="103" viewBox="0 0 117 103" fill="none" xmlns="http://www.w3.org/2000/svg">
<path d="M51.9097 24.6558C53.2613 22.2688 46.3371 21.441 51.0021 23.8127C51.4347 23.9551 51.3381 24.8214 51.9097 24.6558ZM14.1526 4.37779C11.2099 0.547027 19.6827 5.02074 16.6975 1.00903C14.1796 -0.989128 11.7621 3.26129 14.1526 4.37779ZM20.3161 9.19031C24.4946 8.6359 19.2541 7.3962 19.478 9.14025L20.3161 9.19031ZM17.0142 8.40105C15.4424 9.01706 17.9101 7.1883 17.0142 8.40105V8.40105ZM23.6759 15.7122C26.271 15.7738 22.5598 12.2395 25.6492 13.8373C25.1433 12.1856 22.05 11.8776 20.5323 11.2193C19.6827 12.7285 22.2701 15.7315 23.6681 15.7122H23.6759ZM15.5969 15.3811C17.8175 13.7102 23.2588 16.3706 19.7677 13.7218C19.4317 13.4253 12.1135 15.7315 15.5969 15.3811ZM13.3184 19.7239C17.2073 18.4072 22.5212 16.9288 24.3555 20.3746C22.4864 18.1339 23.6025 15.9278 25.3673 19.2042C27.8582 22.519 29.1056 17.6988 27.4798 16.5823C29.3296 18.8731 31.4304 19.9511 28.7194 16.7248C31.6621 13.1943 22.8185 17.1906 20.8065 17.1483C19.8411 17.5795 10.8082 19.4429 13.3184 19.7239ZM20.5555 31.7899C19.2541 31.478 21.5055 30.6195 20.5555 31.7899V31.7899ZM18.2886 37.8382C17.6128 38.5774 18.0569 36.4445 18.2886 37.8382V37.8382ZM16.3693 36.868C18.5396 36.7256 19.7754 34.4772 15.9483 34.6081C10.0127 33.9959 21.1811 36.6293 15.1876 35.8786C14.3804 36.406 16.3268 37.0182 16.3693 36.8757V36.868ZM109.053 95.5615C111.741 95.5615 117.198 94.7299 111.347 94.7299C110.432 94.8762 105.998 94.8454 109.053 95.5615ZM96.1701 88.0193C94.8687 88.1964 96.4597 86.0558 96.1701 88.0193V88.0193ZM106.269 94.8993C104.801 95.6693 106.327 93.1899 106.269 94.8993V94.8993ZM6.846 32.8833C4.57138 32.325 8.77305 31.4164 6.846 32.8833V32.8833ZM14.1796 38.0808C11.6192 37.5726 15.3613 36.8295 14.1796 38.0808V38.0808ZM11.6965 37.3878C8.12041 35.6091 15.0601 35.3319 11.6965 37.3878V37.3878ZM36.5744 21.776C37.6982 18.8307 40.9459 20.5979 37.0957 21.1831C37.1768 21.4949 36.9798 22.7038 36.5744 21.776ZM33.4849 21.7952C33.2184 15.9548 38.8837 23.8743 33.4849 21.7952V21.7952ZM22.6254 23.4623C24.4096 21.3255 32.7357 22.0994 26.6417 23.2544C25.012 22.0262 23.757 23.9744 22.6254 23.4623ZM21.8724 23.9628C22.1813 25.0678 22.9421 22.7115 21.8724 23.9628V23.9628ZM18.9412 25.1409C19.0957 23.162 23.8535 26.1881 19.7291 25.8532L18.9412 25.1409ZM16.7941 25.1024C17.69 25.8031 18.4817 23.8512 16.7941 25.1024V25.1024ZM16.5662 27.193C17.7402 22.8925 22.8417 30.7273 18.4856 27.7589C17.9974 27.3779 17.3948 27.1718 16.7748 27.1737L16.5546 27.1814H16.5624L16.5662 27.193ZM4.5289 33.3029C4.08093 30.7273 4.14272 26.2112 8.44866 27.7397C2.70226 28.8754 12.4263 34.8583 11.1983 30.1344C13.6119 30.2499 15.929 28.7099 14.6546 31.0468C19.4163 30.5194 22.7143 26.4076 27.3176 26.9812C31.3028 26.662 35.2352 25.867 39.0305 24.6135L38.6791 24.7136C41.8535 24.4826 44.9043 21.0753 43.1665 19.0617C38.4763 18.7923 33.7715 19.1916 29.1944 20.2475L29.5265 20.1821C24.2281 21.2793 19.4124 23.3661 14.0599 24.267C8.84643 24.9638 15.1065 26.192 13.6158 26.4615C10.8932 27.4047 16.8597 28.04 13.2644 29.0294C11.0438 28.6059 8.72671 27.8475 9.68058 25.5182C4.68724 26.1573 0.292478 28.2286 4.24313 33.2914H4.53277L4.5289 33.3029ZM12.9091 38.8931C10.9318 39.2551 13.1755 37.0644 12.9091 38.8931V38.8931ZM100.654 95.4344C99.0433 95.6731 101.291 93.5479 100.654 95.4344V95.4344ZM91.1266 90.5103C89.0991 90.0598 92.7176 89.0511 91.1266 90.5103V90.5103ZM12.2989 41.9732C14.7975 40.9953 7.76126 39.9519 11.7969 41.7807L12.2989 41.9732ZM6.41348 38.4658C5.49822 38.6583 6.24356 36.9258 6.41348 38.4658V38.4658ZM5.35147 39.2666C4.65634 39.7556 5.25493 37.9691 5.35147 39.2666V39.2666ZM12.5229 43.9059C8.46797 43.4824 12.1869 41.0915 12.5229 43.9059V43.9059ZM26.4216 54.143C25.0236 53.7426 27.0086 53.604 26.4216 54.143V54.143ZM13.8475 46.1081C13.2682 45.6422 13.3957 46.6933 13.8475 46.1081V46.1081ZM11.8509 45.134C8.64948 44.056 11.8934 43.9328 11.8509 45.134V45.134ZM8.35598 44.2562C5.82262 43.6903 7.69174 40.5294 8.35598 44.2562V44.2562ZM23.0116 54.401C21.4823 54.3278 23.0541 52.4413 23.0116 54.401V54.401ZM89.2381 95.5268C91.7097 95.0263 97.3364 96.7781 98.2439 94.8723C95.251 94.7992 87.8672 92.7664 87.5196 95.3536L88.1761 95.4652L89.2381 95.5268ZM21.2429 53.9582C20.6559 54.1969 21.2081 53.3191 21.2429 53.9582V53.9582ZM15.6626 51.2632C13.89 50.832 17.5896 50.6126 15.6626 51.2632V51.2632ZM60.2049 81.2394C58.2971 81.7207 60.1701 79.3106 60.2049 81.2394V81.2394ZM16.852 54.0006C13.6467 53.1844 19.8449 52.8456 16.852 54.0006V54.0006ZM74.8103 91.1417C73.5089 91.0454 75.853 90.3717 74.8103 91.1417V91.1417ZM63.9431 84.3118C63.1862 84.4542 63.75 83.5648 63.9431 84.3118V84.3118ZM62.6224 83.3531C60.5563 83.3223 62.1011 82.0171 62.6224 83.3531V83.3531ZM35.2073 66.1127C31.7085 65.3235 35.2073 64.1646 35.2073 66.1127V66.1127ZM32.0406 65.3812C30.7584 64.3071 31.9788 65.2272 32.0406 65.3812V65.3812ZM11.1751 52.5568C11.6192 50.7127 7.0584 42.4198 9.02407 48.3988C9.72693 49.6501 9.64969 52.0255 11.1751 52.5568ZM22.5443 61.5043C25.0391 62.0625 32.5156 67.6335 28.1054 61.8893C25.8462 61.2271 27.2017 55.7177 24.8962 56.6918C26.4409 59.2674 26.1706 60.3608 22.9189 58.74C18.8408 56.7534 20.6327 59.7217 21.4244 60.5379C20.3431 60.7882 22.8687 61.4812 22.5482 61.5004L22.5443 61.5043ZM85.0133 101.594C82.7503 101.194 86.8747 100.355 85.0133 101.594V101.594ZM78.3516 97.1785C75.4205 98.2026 81.1206 94.8608 78.3516 97.1785V97.1785ZM79.6531 97.806C83.0553 95.3536 77.587 97.3363 78.9386 98.268L79.6531 97.806ZM41.56 75.2681C40.4787 75.4952 40.861 73.8397 41.56 75.2681V75.2681ZM39.3394 73.986C37.9337 74.0823 39.2429 72.831 39.3394 73.986V73.986ZM75.3896 96.6472C78.0504 94.9378 74.7833 95.2034 74.9069 96.8012L75.3896 96.6472ZM20.8335 62.3474C18.8061 62.1973 21.6214 61.1847 20.8335 62.3474V62.3474ZM76.2624 97.7675C74.5246 97.2747 79.012 95.419 76.2624 97.7675V97.7675ZM72.0839 96.1313C69.8363 94.5913 77.56 92.6008 72.0839 96.1313V96.1313ZM14.029 59.8834C11.4918 56.276 12.4495 54.6474 10.0011 51.706C9.5377 49.446 5.80331 44.3294 8.0702 49.754C10.144 52.9226 10.7619 57.8314 14.029 59.8873V59.8834ZM73.0146 97.1323C70.1298 97.3209 75.9921 93.9868 73.0146 97.1323V97.1323ZM73.0107 98.141C71.8522 98.4567 73.0262 97.421 73.0107 98.141V98.141ZM67.4111 94.3141C64.8043 95.3151 70.1028 92.0618 67.4111 94.3141V94.3141ZM42.8151 79.1604C44.5606 80.7004 50.8361 80.2962 44.9391 79.3529C44.0624 78.0555 39.3858 78.3712 42.8151 79.1604ZM24.9078 68.3996C20.737 66.6479 23.7415 66.4669 24.9078 68.3996V68.3996ZM21.7642 66.3399C18.3851 64.4649 21.2815 64.4495 21.7642 66.3399V66.3399ZM68.5349 95.6269C70.1028 94.11 68.5966 98.0486 71.1416 95.2573C71.1648 93.2592 71.0605 92.0811 68.2182 94.5066C67.4381 94.9378 67.0905 96.7819 68.5349 95.6269ZM65.5883 94.3911C64.6576 95.5461 65.6848 93.0436 65.5883 94.3911V94.3911ZM36.9219 77.0776C33.5853 74.4018 43.7265 79.2605 36.9219 77.0776V77.0776ZM31.3223 73.8705C32.9636 75.0871 37.5012 77.3278 33.6587 74.3325C34.9563 72.831 31.1794 72.0341 32.4345 71.0331C29.2485 69.0888 29.9243 69.262 32.1564 69.3198C28.3255 67.6181 32.7048 67.7413 32.4924 66.8673C31.021 66.5786 25.1588 64.2686 28.6113 67.0598C25.1086 65.2811 27.7771 67.722 26.719 67.4641C23.1352 66.4939 29.905 70.1822 26.1513 69.2697C28.2019 70.8906 31.6814 73.4278 27.0202 70.9869C26.4023 71.8685 30.3491 73.2006 31.3261 73.8744L31.3223 73.8705ZM41.896 80.866C44.8657 81.636 44.8503 80.4078 42.1624 80.0498C40.7142 78.7023 36.1496 77.2816 40.2315 79.8804C40.5057 80.5618 41.3669 80.5503 41.8921 80.8698L41.896 80.866ZM36.5396 78.171C35.9217 77.6358 36.6168 78.5059 36.5396 78.171V78.171ZM39.1425 27.1121C39.239 27.782 39.5943 26.5577 39.1425 27.1121V27.1121ZM37.5862 36.3637C36.5435 34.5349 38.8992 28.3133 39.1579 32.1787C38.0612 35.1856 38.8451 36.868 39.6059 32.8332C41.0193 29.657 39.3008 39.101 37.5784 36.3675L37.5862 36.3637ZM36.0723 38.8162C35.8174 37.2761 36.9412 40.7604 36.0723 38.8162V38.8162ZM37.003 41.2686C35.4853 37.5341 38.4126 43.2398 37.003 41.2686V41.2686ZM37.6364 42.6662C37.6248 41.8615 37.8449 43.8289 37.6364 42.6662V42.6662ZM26.7151 36.6062C27.7076 34.5195 28.5495 38.9316 26.7151 36.6062V36.6062ZM22.8456 34.3078C23.1738 35.1355 23.4673 34.0421 22.8456 34.3078V34.3078ZM39.3858 47.1822C39.8839 49.8426 39.9496 42.6392 39.3858 47.1822V47.1822ZM24.5486 38.5043C25.3635 37.3108 22.3783 33.1143 24.9773 36.9989C26.0972 37.8883 28.2212 38.4889 26.3444 38.8624C29.2871 41.4573 25.6222 39.5631 24.5486 38.5081V38.5043ZM40.2354 48.4296C40.4478 44.4372 41.4325 46.0465 40.2431 48.9956L40.2354 48.4296ZM23.058 39.8903C25.0622 39.4668 31.3493 43.3977 25.5681 41.0145C24.9309 40.3023 23.56 40.6334 23.058 39.8903ZM41.3553 52.5029C41.4016 53.9698 41.9809 50.2815 41.3553 52.5029V52.5029ZM33.2377 47.3131C32.9211 43.4169 33.9483 47.9561 33.2377 47.3131V47.3131ZM22.5443 41.6575C19.1807 37.0259 32.3263 46.3391 24.7031 42.8317C23.9076 42.6238 22.946 42.543 22.5443 41.6575ZM41.1043 54.2008C41.139 55.4405 41.363 53.142 41.1043 54.2008V54.2008ZM42.0697 55.1556C42.3014 52.6877 42.5486 56.8381 42.0697 55.1556V55.1556ZM36.5203 51.8831C34.2534 50.5279 35.9256 42.3389 36.6979 47.9368C38.903 47.2246 36.5782 50.8243 38.2195 50.7935C37.9646 53.0689 37.227 53.889 36.5319 51.8792L36.5203 51.8831ZM21.5132 43.1859C16.2727 38.5389 28.1015 45.6191 22.3667 44.0522L21.5132 43.1859ZM24.8769 46.393C23.2935 43.4246 26.8078 47.6327 24.8769 46.393V46.393ZM23.1854 45.8501C23.7415 46.8704 24.232 44.8145 23.1854 45.8501V45.8501ZM20.4358 45.9233C18.6323 44.1446 17.327 42.4929 20.5169 44.8183C21.7488 44.8645 17.7866 41.0761 20.8065 43.6171C23.9925 44.1946 22.386 48.8223 20.4358 45.9271V45.9233ZM25.6686 49.9619C26.7113 47.7713 27.4334 53.0111 25.6686 49.9619V49.9619ZM23.4943 49.2189C23.6874 46.316 24.6027 51.2055 23.4943 49.2189V49.2189ZM28.3371 52.5414C27.2762 50.7142 26.7205 48.639 26.7267 46.5277V46.5162C27.0936 48.3334 30.6078 54.3432 28.4491 49.0071C26.0663 44.5334 31.2952 50.4586 31.8359 51.5751C32.0753 52.68 30.3645 51.2709 31.527 53.8736C29.4029 50.9052 30.2719 55.5137 28.3371 52.5414ZM44.0007 62.9596C42.3014 59.1596 45.2055 60.8806 44.3753 63.5833L44.0007 62.9596ZM34.9176 60.0528C34.1684 58.7169 36.4778 61.3041 34.9176 60.0528V60.0528ZM45.4952 67.3909C46.144 64.9654 46.2598 69.4314 45.4952 67.3909V67.3909ZM30.519 59.2982C31.0404 61.0962 31.5772 59.0095 30.519 59.2982V59.2982ZM49.3377 72.2497C47.542 68.7846 51.6046 73.2314 49.3377 72.2497V72.2497ZM50.894 74.3325C50.8477 72.0803 51.4115 76.065 50.894 74.3325V74.3325ZM68.7782 87.8807C68.8091 88.5545 69.6702 87.8268 68.7782 87.8807V87.8807ZM53.1493 77.9823C51.7205 76.4924 51.3497 73.7011 52.8944 76.1305C53.6861 76.4462 55.4278 80.685 53.1493 77.9823ZM57.9496 91.492C61.6801 89.2706 60.4482 96.6972 64.2753 92.1157C68.0483 89.3745 61.0197 95.5153 65.6732 92.6124C69.033 90.364 74.0032 93.6711 77.139 94.753C79.3982 94.6413 81.5917 96.7011 83.9088 95.4498C88.3615 94.2486 75.1926 93.6711 78.649 91.5536C76.909 91.9259 75.0955 91.742 73.4663 91.028C71.8371 90.3141 70.475 89.1064 69.5737 87.5766L69.5505 87.5381C64.7034 86.7522 60.3569 84.1075 57.4398 80.1691L57.4051 80.1191C56.4782 78.6022 58.7567 80.3308 56.6057 77.8591C54.252 75.498 52.2645 72.8003 50.7087 69.8549L50.6198 69.674C48.4147 68.4997 48.1598 65.0424 47.932 69.5585C47.9513 66.7056 45.2635 64.7845 44.6108 65.5853C44.6031 62.8364 47.484 64.2147 45.4604 62.1819C45.0279 59.3329 43.599 56.3607 43.1665 53.1497C42.5023 51.602 43.07 48.2872 40.8842 51.7945C40.0886 55.4982 40.6177 47.24 41.8573 49.9658C43.4832 47.1745 41.2781 47.5133 41.1815 47.8983C42.2435 45.5498 41.8573 42.2196 40.9073 43.4901C41.4712 41.003 41.7994 34.3386 40.0616 35.5244C41.112 32.9256 42.0582 23.6279 37.4857 27.1737C35.181 27.2617 32.9105 27.7597 30.7816 28.6444L30.9091 28.5982C35.6668 31.2124 30.4263 29.5415 28.4954 29.1257C28.2444 31.5396 26.3251 30.4963 23.9307 30.5194C27.7578 30.9891 22.0693 34.4156 19.872 33.0873C17.0258 34.4425 22.3319 37.8344 19.9299 38.8854C20.2195 40.464 15.5621 38.3079 15.9252 41.9655C13.1601 40.8066 15.5506 46.2967 16.9331 44.4372C21.6368 45.7077 20.2427 48.6029 20.3585 51.3518C19.5978 52.9534 16.5739 47.5865 19.6827 47.8329C17.2343 43.8558 16.9756 46.3891 14.9327 48.241C14.4499 48.3757 20.1384 50.8744 16.5739 52.1025C19.7098 52.5838 19.7986 55.325 20.4358 57.0575C22.3165 59.0172 21.9303 54.8938 24.1933 57.25C22.7645 55.1517 16.6319 51.3402 21.5673 52.5645C21.5441 50.447 20.6752 48.7492 22.189 48.7915C23.6836 46.0888 20.6211 55.4636 24.0002 52.0255C24.9309 51.6174 25.1588 49.3151 26.8464 52.2411C29.2832 54.6359 27.723 56.3684 24.2822 54.1815C24.8962 56.2644 28.8855 57.0075 28.1363 60.2684C28.9318 63.1328 30.044 62.0779 31.0133 61.9124C31.7741 64.6921 32.2066 62.6477 32.2452 61.3195C35.7209 62.0664 34.9099 64.1107 35.9989 65.5545C38.3971 66.6325 32.5619 58.2318 36.6825 63.025C41.0155 66.9212 38.3083 68.5575 34.4156 67.9338C36.8756 67.7374 37.675 71.2525 40.7529 71.1293C43.5604 72.4614 45.4566 77.5781 40.6216 75.4452C38.9417 73.9398 32.9983 72.0764 37.8565 74.9447C42.297 76.7352 46.6182 78.8069 50.7936 81.147L50.2143 80.8506C53.3038 83.0528 54.6439 85.5746 55.814 86.0751C53.2188 87.3109 47.9822 85.0856 51.8711 84.4003C49.442 83.9614 46.7155 82.7409 49.0365 85.7478C51.0137 87.3995 56.0341 87.2185 56.9378 87.4072C56.1693 89.0819 54.864 89.2167 56.9687 89.3476C54.6245 90.5988 57.7217 90.7913 57.938 91.5036L57.9496 91.492ZM44.0702 82.9874C48.0594 83.4956 39.3163 80.2769 43.1974 82.6986L44.0702 82.9874ZM54.7134 90.1907C51.3343 89.517 58.1774 88.8201 54.7134 90.1907V90.1907ZM34.2495 77.5011C30.6773 76.0034 36.4701 77.2624 34.2495 77.5011V77.5011ZM46.3409 85.1626C43.7921 84.793 46.6306 83.9344 46.3409 85.1626V85.1626ZM64.0242 96.5779C63.1399 96.9398 63.9779 95.6308 64.0242 96.5779V96.5779ZM47.7814 86.6449C47.233 86.0211 47.5188 86.7796 47.7814 86.6449V86.6449ZM21.687 70.1168C18.4354 67.5488 21.3163 68.6884 21.687 70.1168V70.1168ZM31.6274 76.527C27.5338 75.2142 34.6203 76.3499 31.6274 76.527V76.527ZM40.0152 82.56C38.3933 82.5215 39.7063 81.6398 40.0152 82.56V82.56ZM62.3598 96.3007C60.6567 97.5981 62.495 94.5528 62.3598 96.3007V96.3007ZM31.1369 77.1276C29.8548 77.2162 30.9361 76.1651 31.1369 77.1276V77.1276ZM53.5471 91.3688C48.8434 90.6604 58.7606 91.415 53.5471 91.3688V91.3688ZM44.0238 85.8826C49.5269 87.438 39.4012 82.4175 42.6683 85.3166L43.3905 85.6439L44.0161 85.8826H44.0238ZM48.7739 89.6517C44.8425 88.7393 49.7046 88.0655 48.7739 89.6517V89.6517ZM33.1373 80.1345C35.3849 81.8554 42.2088 80.3539 36.5821 79.1104C34.0256 77.7475 28.2483 76.8196 32.1796 79.9266L33.1373 80.1345ZM45.6072 88.6623C42.2474 87.8769 47.681 87.8846 45.6072 88.6623V88.6623ZM40.9459 85.8094C37.9492 85.0394 42.3941 84.8007 40.9459 85.8094V85.8094ZM35.3965 82.5869C32.4229 81.6976 35.2034 81.7823 35.3965 82.5869V82.5869ZM54.3195 97.2824C56.2349 98.4836 65.5149 99.9274 59.699 97.7791C58.7335 97.9793 48.9361 95.0186 54.3117 97.2824H54.3195ZM42.398 89.8635C41.5484 90.2254 42.3323 89.0665 42.398 89.8635V89.8635ZM40.0152 88.6777C36.976 88.6584 42.3671 87.1608 40.0152 88.6777V88.6777ZM50.4731 95.958C47.5304 95.4421 51.3961 94.6028 50.4731 95.958V95.958ZM45.0318 92.9281C42.6954 92.0233 46.5379 91.4843 45.0318 92.9281V92.9281ZM41.8496 91.6037C40.6911 92.3159 41.5909 90.3293 41.8496 91.6037V91.6037ZM39.3085 90.6797C37.814 90.1022 40.3474 90.2177 39.3085 90.6797V90.6797ZM20.2272 73.8551C20.3856 73.1544 21.0807 75.3797 20.2272 73.8551V73.8551ZM33.7089 88.6122C38.3894 90.3409 33.6896 85.332 31.5385 85.6208C30.5924 83.9807 27.9161 82.9411 29.8007 82.0595C26.4023 83.2337 26.244 77.5858 24.6374 78.3904C21.0459 77.2585 23.2395 73.243 18.9606 70.7905C18.5705 68.1917 14.7048 65.9395 13.469 62.024C12.9245 60.022 9.10131 54.2624 11.4532 59.6178C13.7838 64.639 16.6601 69.3901 20.0303 73.7858L19.899 73.6049C21.9237 78.0171 25.0252 81.853 28.9202 84.7622L28.9974 84.8161C30.3954 86.1559 31.7393 88.2003 33.7127 88.6161L33.7089 88.6122ZM42.8962 95.0879C47.4668 97.4013 52.3482 99.0455 57.3896 99.9697L57.7295 100.024C63.2267 101.243 68.8428 101.85 74.4743 101.833C77.5561 101.833 80.5992 101.656 83.5883 101.31L83.2253 101.344C79.4136 99.6271 75.4668 102.018 71.6668 100.116C66.8611 100.629 62.0029 100.322 57.3008 99.2074L57.5904 99.2652C51.896 97.2247 46.3567 94.7774 41.0155 91.9425L41.7067 92.2774C35.5433 90.0367 44.8927 95.1534 46.5572 95.573C50.4074 97.7521 42.3246 94.4527 41.1815 93.5479C37.9569 91.7423 37.5437 92.1196 40.8648 93.9522C41.5368 94.3372 42.1972 94.7491 42.8923 95.0841L42.8962 95.0879ZM35.103 91.7192C30.4803 88.5653 26.3533 84.7441 22.8571 80.3809L22.7683 80.2692C16.1514 72.1515 10.9659 62.9721 7.433 53.1228L7.22832 52.476C5.07728 45.9579 4.33195 38.9663 1.56302 32.7023C0.998388 31.6465 0.694514 30.4716 0.67662 29.2753C0.658727 28.0789 0.927331 26.8955 1.46013 25.8234C1.99294 24.7513 2.77457 23.8213 3.74015 23.1107C4.70573 22.4001 5.82741 21.9293 7.01206 21.7375L7.05454 21.7336C9.27509 21.314 13.1948 19.2234 8.46797 20.7172C4.23154 23.8165 3.82219 17.9029 8.16288 17.5333C8.75124 17.5282 9.32849 17.373 9.83961 17.0824C10.3507 16.7919 10.7787 16.3756 11.0826 15.8734C11.3866 15.3712 11.5565 14.7997 11.576 14.2134C11.5956 13.6272 11.4642 13.0457 11.1944 12.5244L11.2021 12.5437C8.01614 10.4762 18.9219 8.20085 13.4381 5.11699C7.73036 -1.03533 21.436 -2.21343 18.0569 4.76279C17.2498 10.1259 27.6304 3.77719 25.2244 9.97186C27.6728 12.9518 34.3924 10.6456 34.2264 14.8267C37.7986 15.0654 39.0189 18.0607 42.3671 18.2917C45.8427 19.8548 52.1259 21.083 53.3038 24.9792C49.8629 27.7012 41.896 19.3736 41.5136 26.8927C41.6025 38.7315 43.3673 50.1236 46.5804 60.896L46.3602 60.0297C48.8152 66.1856 52.4992 71.7799 57.1888 76.4731C61.3485 81.1039 66.3789 84.8762 71.9951 87.5766L72.2808 87.6998C76.7606 89.8096 81.9663 91.4728 87.4115 92.4276L87.7861 92.4815C89.9487 90.8298 93.7719 84.7006 97.1394 87.284C97.2978 90.1907 90.4392 93.3593 96.815 93.0397C100.561 91.9155 103.156 95.9272 106.242 92.3082C109.08 95.6616 118.047 90.1638 116.024 97.0245C113.293 98.7762 109.308 97.7175 106.57 100.131C102.059 97.883 98.464 102.141 93.4668 101.602C88.076 102.546 82.6122 103.013 77.139 103H76.6254H76.6524C67.1069 102.845 57.6303 101.356 48.4997 98.576L49.2218 98.7647C44.1371 97.078 39.3242 94.6659 34.9331 91.6037L35.1107 91.723L35.103 91.7192Z" fill="white"/>
</svg>
