<svg width="199" height="69" viewBox="0 0 199 69" fill="none" xmlns="http://www.w3.org/2000/svg">
<path d="M150.198 15.9336C154.836 15.9336 159.123 16.4247 164.322 17.4775L160.616 25.2744C157.736 24.7131 160.386 25.1998 158.209 24.9893V26.1123L158.349 30.6738L158.419 36.5703C158.489 38.0437 158.489 39.5184 158.56 40.9922V43.9414C158.56 53.2067 157.787 57.5586 155.469 61.1387C152.096 66.4036 146.263 69 137.972 69C133.756 69 130.103 68.3683 126.309 66.8945L126.31 56.9268C130.104 58.8923 133.899 59.8037 137.903 59.8037C144.999 59.8036 148.02 56.9268 148.021 50.0479V49.8369C145.913 50.8893 143.804 51.3105 140.994 51.3105C131.508 51.3104 125.465 45.0634 125.465 35.167C125.465 22.8823 134.389 15.9336 150.198 15.9336ZM52.0459 41.6943C52.0459 50.3284 51.4132 54.4702 49.5166 58.0498C47.7597 61.4899 45.4407 63.6655 40.6631 66.0527L30.6143 61.2793C35.3923 59.0329 37.711 57.0681 39.1865 54.0488C40.7327 50.961 41.2256 47.3802 41.2256 37.9746V16.6357H52.0459V41.6943ZM181.121 15.7236C191.942 15.7236 198.548 22.5327 198.548 33.5527C198.548 44.8543 191.662 51.9432 180.7 51.9434C169.879 51.9434 163.203 45.1344 163.203 34.1846C163.204 22.8126 170.09 15.7238 181.121 15.7236ZM72.916 15.8643C78.4669 15.8643 82.1208 17.3378 83.7373 20.2158C84.6502 21.8301 84.9316 23.9359 84.9316 28.4287V50.3984C80.0829 51.1003 73.9703 51.5927 69.4736 51.5928C60.4097 51.5928 56.3331 48.4327 56.333 41.4141C56.333 33.8324 61.7435 30.3227 75.0234 29.1992V26.8125C75.0233 24.8475 74.0401 24.1465 71.2998 24.1465C67.295 24.1465 62.7976 25.2691 58.5811 27.4453L58.582 19.0928C63.3605 16.8473 67.9272 15.8643 72.916 15.8643ZM107.206 15.8643C112.757 15.8643 116.763 17.127 119.152 19.584C121.401 21.8997 122.103 24.4272 122.103 29.833V51.0303H111.281V30.2539C111.281 26.1128 109.876 24.5674 106.012 24.5674C104.536 24.5674 103.201 24.7082 101.022 25.3398V51.0303H90.2021V18.3203C96.5957 16.6358 101.866 15.8643 107.206 15.8643ZM34.6367 49.54C29.0797 50.5824 24.9994 51 20.5674 51C7.34134 50.9991 0.447266 45.0924 0.447266 33.7637C0.447356 22.8524 7.76406 15.7646 19.0898 15.7646C20.8483 15.7647 22.185 15.9024 23.8037 16.3193V0H34.6367V49.54ZM75.5166 36.29C68.3492 36.9919 66.0303 38.1149 66.0303 40.9229C66.0303 43.028 67.3655 44.0107 70.3164 44.0107C71.9327 44.0107 73.4076 43.8704 75.5156 43.5195L75.5166 36.29ZM180.981 24.4277C176.695 24.4277 174.234 27.8675 174.234 33.833C174.235 39.7999 176.695 43.2393 180.91 43.2393C185.056 43.2391 187.516 39.7993 187.516 33.833C187.516 27.9374 185.126 24.428 180.981 24.4277ZM146.687 24.6377C144.579 24.5676 142.121 25.129 140.434 26.1816C137.835 27.656 136.498 30.3234 136.498 34.1133C136.498 39.5187 139.17 42.6074 143.947 42.6074C145.423 42.6074 146.617 42.3259 148.021 41.9053V38.1855C148.021 36.9217 147.952 35.517 147.952 34.0439L147.882 29.0605L147.812 25.4805L147.811 24.6377H146.687ZM20.1455 24.3818C14.6583 24.3818 11.4923 27.7174 11.4922 33.5547C11.4922 39.254 14.5176 42.3818 20.0752 42.3818C21.2708 42.3818 22.2563 42.312 23.8037 42.1035V24.9365C22.5377 24.5201 21.4823 24.3819 20.1455 24.3818ZM52.0459 11.0908H41.2256V0H52.0459V11.0908Z" fill="white"/>
</svg>
