<svg width="126" height="120" viewBox="0 0 126 120" fill="none" xmlns="http://www.w3.org/2000/svg">
<path d="M73.2024 54.3171C74.9654 54.3244 76.3913 55.7588 76.3839 57.5166C76.3784 59.2744 74.9415 60.6979 73.1766 60.6906C71.4155 60.6833 69.9896 59.2525 69.9951 57.491C70.0025 55.7332 71.4394 54.3098 73.2024 54.3171ZM84.1433 60.2703C85.967 61.5073 86.4405 63.9833 85.1988 65.8032C83.959 67.6213 81.4757 68.0946 79.6538 66.8557C77.83 65.6186 77.3566 63.1427 78.5964 61.3228C79.8362 59.5047 82.3195 59.0314 84.1433 60.2703ZM91.3113 74.066C92.3355 76.6205 91.0902 79.5149 88.5295 80.5363C85.9689 81.5577 83.0674 80.3152 82.0431 77.7625C81.0189 75.208 82.2661 72.3119 84.8249 71.2904C87.3855 70.2726 90.2907 71.5133 91.3113 74.0678M89.0748 93.3617C88.3453 96.722 85.022 98.8581 81.6544 98.1272C78.2887 97.3999 76.1499 94.0871 76.8776 90.7287C77.609 87.3684 80.9305 85.2378 84.298 85.9632C87.6637 86.6923 89.8025 90.0051 89.0748 93.3617ZM73.2319 111.797C70.1222 114.77 65.1851 114.666 62.2063 111.563C59.2256 108.464 59.3306 103.539 62.4403 100.567C65.5499 97.5936 70.487 97.6978 73.4677 100.8C76.4465 103.903 76.3378 108.826 73.23 111.797M43.8948 119.857C38.5874 120.77 33.5453 117.216 32.6316 111.925C31.716 106.633 35.2733 101.604 40.5807 100.691C45.8862 99.7772 50.9265 103.329 51.8439 108.623C52.7576 113.915 49.1985 118.945 43.8948 119.857ZM7.84473 107.755C1.70651 104.999 -1.031 97.8056 1.72862 91.6843C4.49192 85.563 11.7041 82.8313 17.8442 85.585C23.9806 88.3386 26.7181 95.5343 23.9566 101.657C21.197 107.779 13.9811 110.507 7.84473 107.755ZM46.2105 69.9949C45.3336 68.4673 45.866 66.5195 47.395 65.646C48.9259 64.7726 50.8786 65.3025 51.7555 66.8301C52.6324 68.3577 52.1 70.3019 50.5709 71.1771C49.0364 72.0506 47.0873 71.5207 46.2105 69.9967M45.9046 57.5696C46.0649 55.3751 47.9808 53.7306 50.1841 53.8895C52.3818 54.0522 54.0343 55.9598 53.8703 58.1543C53.7064 60.3489 51.7942 61.9934 49.5946 61.8344C47.395 61.6718 45.7444 59.7641 45.9046 57.5696ZM54.2996 44.4774C56.0054 42.3176 59.1446 41.9448 61.3091 43.646C63.4774 45.3472 63.8477 48.4772 62.1437 50.6389C60.4359 52.7987 57.2987 53.1714 55.1341 51.4703C52.9677 49.7673 52.5955 46.639 54.2996 44.4774ZM72.1726 36.7628C75.4536 35.7121 78.9667 37.5156 80.0186 40.7882C81.0705 44.0608 79.2651 47.5654 75.9823 48.6143C72.7032 49.6613 69.1901 47.8615 68.1382 44.5889C67.0826 41.3163 68.8935 37.8116 72.1726 36.7628ZM96.0992 41.2304C100.235 42.4291 102.615 46.7468 101.41 50.8728C100.207 54.9969 95.8799 57.3686 91.7423 56.17C87.6084 54.9676 85.2302 50.6535 86.435 46.5276C87.6379 42.4016 91.9652 40.0317 96.101 41.2304M117.767 62.5416C121.212 66.6675 120.652 72.7979 116.513 76.2349C112.377 79.6738 106.229 79.1147 102.785 74.9851C99.3377 70.8592 99.8996 64.7288 104.039 61.2899C108.175 57.8547 114.322 58.4156 117.767 62.5416ZM125.283 99.7315C125.963 106.408 121.083 112.372 114.389 113.048C107.692 113.723 101.712 108.857 101.036 102.18C100.356 95.4978 105.236 89.5373 111.933 88.8594C118.627 88.1851 124.605 93.0511 125.281 99.7297M73.3148 85.4698C72.4287 86.9901 70.4704 87.5072 68.9469 86.6192C67.4234 85.733 66.9076 83.7815 67.7937 82.263C68.6835 80.7428 70.6381 80.2257 72.1597 81.1137C73.6851 81.9981 74.2009 83.9478 73.3148 85.4698ZM62.6761 91.9456C60.6902 92.9031 58.3027 92.0717 57.3447 90.0928C56.3849 88.1121 57.2158 85.7311 59.2017 84.7718C61.1876 83.8162 63.5751 84.6458 64.533 86.6283C65.4909 88.6072 64.662 90.99 62.6761 91.9456ZM47.1113 91.2421C44.3848 90.8493 42.4929 88.324 42.8853 85.6014C43.2795 82.8788 45.8107 80.9931 48.5372 81.386C51.2691 81.7788 53.1611 84.3041 52.765 87.023C52.3708 89.7456 49.8396 91.635 47.1094 91.2403M31.4765 79.6574C28.9269 77.3477 28.7316 73.41 31.0473 70.8647C33.3629 68.3211 37.3108 68.1293 39.8622 70.4389C42.4155 72.7486 42.6034 76.6826 40.2878 79.228C37.9721 81.7733 34.028 81.9652 31.4747 79.6556M23.3892 56.7528C22.365 52.5794 24.9238 48.3676 29.1074 47.3443C33.2911 46.3229 37.5153 48.8738 38.5414 53.0472C39.5675 57.2206 37.0068 61.4306 32.8232 62.4538C28.6395 63.4771 24.4153 60.9244 23.3892 56.7528ZM31.062 27.3835C32.9226 22.3421 38.5266 19.7639 43.5798 21.6167C48.6329 23.475 51.2194 29.0627 49.3588 34.1041C47.4981 39.1437 41.8942 41.7237 36.841 39.8673C31.7878 38.0089 29.2014 32.4212 31.062 27.3817M59.5941 2.29358C65.0543 -1.62952 72.6719 -0.396125 76.6031 5.04724C80.5399 10.4924 79.3038 18.092 73.8435 22.0151C68.3832 25.9418 60.7675 24.7084 56.8307 19.2596C52.8995 13.8162 54.1338 6.21851 59.5941 2.29358Z" fill="white"/>
</svg>
